<mxfile host="drawio-plugin" modified="2021-12-20T18:45:08.638Z" agent="5.0 (Windows NT 6.2; Win64; x64) AppleWebKit/537.36 (KHTML, like Gecko) Chrome/89.0.4389.114 Safari/537.36" version="14.7.4" etag="mSIdh3VC5JEoyoe1Dmlf" type="embed" pages="4"><diagram id="yclw1ULg6vFk_WbH5rQ_" name="Main Diagram"><mxGraphModel dx="899" dy="782" grid="1" gridSize="10" guides="1" tooltips="1" connect="1" arrows="1" fold="1" page="1" pageScale="1" pageWidth="850" pageHeight="1100" math="0" shadow="0"><root><mxCell id="0"/><mxCell id="1" parent="0"/><mxCell id="2" value="" style="rounded=0;whiteSpace=wrap;html=1;" vertex="1" parent="1"><mxGeometry x="365" y="40" width="120" height="60" as="geometry"/></mxCell><mxCell id="3" value="Homepage" style="text;html=1;strokeColor=none;fillColor=none;align=center;verticalAlign=middle;whiteSpace=wrap;rounded=0;" vertex="1" parent="1"><mxGeometry x="405" y="60" width="40" height="20" as="geometry"/></mxCell><mxCell id="8" value="" style="rounded=0;whiteSpace=wrap;html=1;" vertex="1" parent="1"><mxGeometry x="365" y="130" width="120" height="60" as="geometry"/></mxCell><mxCell id="9" value="Authentication" style="text;html=1;strokeColor=none;fillColor=none;align=center;verticalAlign=middle;whiteSpace=wrap;rounded=0;" vertex="1" parent="1"><mxGeometry x="405" y="150" width="40" height="20" as="geometry"/></mxCell><mxCell id="10" value="" style="strokeWidth=2;html=1;shape=mxgraph.flowchart.annotation_2;align=left;labelPosition=right;pointerEvents=1;" vertex="1" parent="1"><mxGeometry x="315" y="60" width="50" height="100" as="geometry"/></mxCell><mxCell id="11" value="Login Click" style="text;html=1;strokeColor=none;fillColor=none;align=center;verticalAlign=middle;whiteSpace=wrap;rounded=0;" vertex="1" parent="1"><mxGeometry x="270" y="100" width="40" height="20" as="geometry"/></mxCell><mxCell id="12" value="" style="rounded=0;whiteSpace=wrap;html=1;" vertex="1" parent="1"><mxGeometry x="365" y="220" width="120" height="60" as="geometry"/></mxCell><mxCell id="13" value="" style="strokeWidth=2;html=1;shape=mxgraph.flowchart.annotation_2;align=left;labelPosition=right;pointerEvents=1;flipH=1;" vertex="1" parent="1"><mxGeometry x="485" y="160" width="50" height="100" as="geometry"/></mxCell><mxCell id="14" value="Plants" style="text;html=1;strokeColor=none;fillColor=none;align=center;verticalAlign=middle;whiteSpace=wrap;rounded=0;" vertex="1" parent="1"><mxGeometry x="405" y="240" width="40" height="20" as="geometry"/></mxCell><mxCell id="15" value="After Authentication" style="text;html=1;strokeColor=none;fillColor=none;align=center;verticalAlign=middle;whiteSpace=wrap;rounded=0;" vertex="1" parent="1"><mxGeometry x="560" y="200" width="40" height="20" as="geometry"/></mxCell><mxCell id="nSdYHwU-kug_QnSnJprZ-15" style="edgeStyle=orthogonalEdgeStyle;rounded=0;orthogonalLoop=1;jettySize=auto;html=1;exitX=1;exitY=0.5;exitDx=0;exitDy=0;entryX=0.75;entryY=1;entryDx=0;entryDy=0;" edge="1" parent="1" source="9" target="9"><mxGeometry relative="1" as="geometry"/></mxCell></root></mxGraphModel></diagram><diagram id="PUIj7rCm0iovViKKXlg5" name="Homepage"><mxGraphModel dx="899" dy="782" grid="1" gridSize="10" guides="1" tooltips="1" connect="1" arrows="1" fold="1" page="1" pageScale="1" pageWidth="850" pageHeight="1100" math="0" shadow="0"><root><mxCell id="lg5776qy8qXzaJbZs1tl-0"/><mxCell id="lg5776qy8qXzaJbZs1tl-1" parent="lg5776qy8qXzaJbZs1tl-0"/><mxCell id="lg5776qy8qXzaJbZs1tl-2" value="" style="rounded=0;whiteSpace=wrap;html=1;" vertex="1" parent="lg5776qy8qXzaJbZs1tl-1"><mxGeometry width="850" height="60" as="geometry"/></mxCell><mxCell id="lg5776qy8qXzaJbZs1tl-3" value="" style="rounded=1;whiteSpace=wrap;html=1;" vertex="1" parent="lg5776qy8qXzaJbZs1tl-1"><mxGeometry x="730" width="120" height="60" as="geometry"/></mxCell><mxCell id="lg5776qy8qXzaJbZs1tl-4" value="Login" style="text;html=1;strokeColor=none;fillColor=none;align=center;verticalAlign=middle;whiteSpace=wrap;rounded=0;" vertex="1" parent="lg5776qy8qXzaJbZs1tl-1"><mxGeometry x="770" y="20" width="40" height="20" as="geometry"/></mxCell><mxCell id="lg5776qy8qXzaJbZs1tl-5" value="&lt;font style=&quot;font-size: 24px&quot;&gt;Water My Plants&lt;/font&gt;" style="text;html=1;strokeColor=none;fillColor=none;align=center;verticalAlign=middle;whiteSpace=wrap;rounded=0;" vertex="1" parent="lg5776qy8qXzaJbZs1tl-1"><mxGeometry x="10" y="20" width="160" height="20" as="geometry"/></mxCell><mxCell id="lg5776qy8qXzaJbZs1tl-6" value="" style="whiteSpace=wrap;html=1;aspect=fixed;" vertex="1" parent="lg5776qy8qXzaJbZs1tl-1"><mxGeometry x="160" y="90" width="540" height="540" as="geometry"/></mxCell><mxCell id="lg5776qy8qXzaJbZs1tl-7" value="Image" style="text;html=1;strokeColor=none;fillColor=none;align=center;verticalAlign=middle;whiteSpace=wrap;rounded=0;" vertex="1" parent="lg5776qy8qXzaJbZs1tl-1"><mxGeometry x="420" y="360" width="40" height="20" as="geometry"/></mxCell></root></mxGraphModel></diagram><diagram id="p4h2uIqO460c-Q5HBeCA" name="Login Page"><mxGraphModel dx="899" dy="782" grid="1" gridSize="10" guides="1" tooltips="1" connect="1" arrows="1" fold="1" page="1" pageScale="1" pageWidth="850" pageHeight="1100" math="0" shadow="0"><root><mxCell id="YOneSvAEBS5pEPIZDMNY-0"/><mxCell id="YOneSvAEBS5pEPIZDMNY-1" parent="YOneSvAEBS5pEPIZDMNY-0"/><mxCell id="YOneSvAEBS5pEPIZDMNY-2" value="" style="rounded=0;whiteSpace=wrap;html=1;" vertex="1" parent="YOneSvAEBS5pEPIZDMNY-1"><mxGeometry width="850" height="60" as="geometry"/></mxCell><mxCell id="YOneSvAEBS5pEPIZDMNY-3" value="" style="rounded=1;whiteSpace=wrap;html=1;" vertex="1" parent="YOneSvAEBS5pEPIZDMNY-1"><mxGeometry x="730" width="120" height="60" as="geometry"/></mxCell><mxCell id="Wf5KB4MOkmPtYmZ8Qt2E-0" value="&lt;font style=&quot;font-size: 24px&quot;&gt;Water My Plants&lt;/font&gt;" style="text;html=1;strokeColor=none;fillColor=none;align=center;verticalAlign=middle;whiteSpace=wrap;rounded=0;" vertex="1" parent="YOneSvAEBS5pEPIZDMNY-1"><mxGeometry x="10" y="20" width="160" height="20" as="geometry"/></mxCell><mxCell id="Wf5KB4MOkmPtYmZ8Qt2E-1" value="Email address" style="fillColor=none;strokeColor=none;align=left;fontSize=14;" vertex="1" parent="YOneSvAEBS5pEPIZDMNY-1"><mxGeometry width="260" height="40" relative="1" as="geometry"><mxPoint x="25" y="100" as="offset"/></mxGeometry></mxCell><mxCell id="Wf5KB4MOkmPtYmZ8Qt2E-2" value="" style="html=1;shadow=0;dashed=0;shape=mxgraph.bootstrap.rrect;rSize=5;fillColor=none;strokeColor=#999999;align=left;spacing=15;fontSize=14;fontColor=#6C767D;" vertex="1" parent="YOneSvAEBS5pEPIZDMNY-1"><mxGeometry width="800" height="30" relative="1" as="geometry"><mxPoint x="25" y="140" as="offset"/></mxGeometry></mxCell><mxCell id="Wf5KB4MOkmPtYmZ8Qt2E-3" value="We'll never share your email with anyone else." style="fillColor=none;strokeColor=none;align=left;spacing=2;fontSize=12;fontColor=#999999;" vertex="1" parent="YOneSvAEBS5pEPIZDMNY-1"><mxGeometry width="260" height="30" relative="1" as="geometry"><mxPoint x="25" y="170" as="offset"/></mxGeometry></mxCell><mxCell id="Wf5KB4MOkmPtYmZ8Qt2E-4" value="Password" style="fillColor=none;strokeColor=none;align=left;fontSize=14;" vertex="1" parent="YOneSvAEBS5pEPIZDMNY-1"><mxGeometry width="260" height="40" relative="1" as="geometry"><mxPoint x="25" y="200" as="offset"/></mxGeometry></mxCell><mxCell id="Wf5KB4MOkmPtYmZ8Qt2E-5" value="" style="html=1;shadow=0;dashed=0;shape=mxgraph.bootstrap.rrect;rSize=5;fillColor=none;strokeColor=#999999;align=left;spacing=15;fontSize=14;fontColor=#6C767D;" vertex="1" parent="YOneSvAEBS5pEPIZDMNY-1"><mxGeometry width="800" height="30" relative="1" as="geometry"><mxPoint x="25" y="240" as="offset"/></mxGeometry></mxCell><mxCell id="Wf5KB4MOkmPtYmZ8Qt2E-6" value="Check me out" style="html=1;shadow=0;dashed=0;shape=mxgraph.bootstrap.rrect;rSize=2;fillColor=#EDEDED;strokeColor=#999999;align=left;fontSize=14;fontColor=#000000;labelPosition=right;verticalLabelPosition=middle;verticalAlign=middle;spacingLeft=5;spacingTop=-2;gradientColor=#DEDEDE;" vertex="1" parent="YOneSvAEBS5pEPIZDMNY-1"><mxGeometry width="10" height="10" relative="1" as="geometry"><mxPoint x="25" y="290" as="offset"/></mxGeometry></mxCell><mxCell id="Wf5KB4MOkmPtYmZ8Qt2E-7" value="Sign in" style="html=1;shadow=0;dashed=0;shape=mxgraph.bootstrap.rrect;rSize=5;fillColor=#0085FC;strokeColor=none;align=center;fontSize=14;fontColor=#FFFFFF;" vertex="1" parent="YOneSvAEBS5pEPIZDMNY-1"><mxGeometry width="70" height="40" relative="1" as="geometry"><mxPoint x="25" y="320" as="offset"/></mxGeometry></mxCell></root></mxGraphModel></diagram><diagram id="nBGy-O6szWfCmj0onqlp" name="Plants"><mxGraphModel dx="899" dy="782" grid="1" gridSize="10" guides="1" tooltips="1" connect="1" arrows="1" fold="1" page="1" pageScale="1" pageWidth="850" pageHeight="1100" math="0" shadow="0"><root><mxCell id="DuwunkOj8kha_-xpxcaw-0"/><mxCell id="DuwunkOj8kha_-xpxcaw-1" parent="DuwunkOj8kha_-xpxcaw-0"/><mxCell id="DuwunkOj8kha_-xpxcaw-2" value="" style="rounded=0;whiteSpace=wrap;html=1;" vertex="1" parent="DuwunkOj8kha_-xpxcaw-1"><mxGeometry width="850" height="60" as="geometry"/></mxCell><mxCell id="DuwunkOj8kha_-xpxcaw-3" value="&lt;font style=&quot;font-size: 24px&quot;&gt;Water My Plants&lt;/font&gt;" style="text;html=1;strokeColor=none;fillColor=none;align=center;verticalAlign=middle;whiteSpace=wrap;rounded=0;" vertex="1" parent="DuwunkOj8kha_-xpxcaw-1"><mxGeometry x="10" y="20" width="160" height="20" as="geometry"/></mxCell><mxCell id="DuwunkOj8kha_-xpxcaw-4" value="" style="whiteSpace=wrap;html=1;aspect=fixed;" vertex="1" parent="DuwunkOj8kha_-xpxcaw-1"><mxGeometry x="80" y="120" width="200" height="200" as="geometry"/></mxCell><mxCell id="DuwunkOj8kha_-xpxcaw-5" value="&lt;h1&gt;Heading&lt;/h1&gt;&lt;p&gt;Lorem ipsum dolor sit amet, consectetur adipisicing elit, sed do eiusmod tempor incididunt ut labore et dolore magna aliqua.&lt;/p&gt;" style="text;html=1;strokeColor=none;fillColor=none;spacing=5;spacingTop=-20;whiteSpace=wrap;overflow=hidden;rounded=0;" vertex="1" parent="DuwunkOj8kha_-xpxcaw-1"><mxGeometry x="320" y="160" width="440" height="370" as="geometry"/></mxCell></root></mxGraphModel></diagram></mxfile>